REM DIRINDEX 1\2,1\3
REM DIRNAME folder01,folder02,folder03
TITLE ""
FILE "Disk1Track08.mp3" MP3
  TRACK 01 AUDIO
    TITLE "2:cjc052_0044"
    INDEX 01 00:00:00
  TRACK 02 AUDIO
    TITLE "2:cjc052_0045"
    INDEX 01 00:05:32
  TRACK 03 AUDIO
    TITLE "2:cjc052_0046"
    INDEX 01 00:15:54
  TRACK 04 AUDIO
    TITLE "0:"
    INDEX 01 00:30:01
